<?xml version="1.0" encoding="UTF-8"?><svg id="b" xmlns="http://www.w3.org/2000/svg" width="240" height="290.27" viewBox="0 0 240 290.27"><defs><style>.d{fill:#394a76;}.e{fill:#ec5924;}</style></defs><g id="c"><polygon class="d" points="139.72 0 139.72 33.13 106.58 33.13 106.58 66.26 172.73 66.26 172.73 33.13 205.8 33.13 205.8 0 139.72 0"/><polygon class="d" points="65.25 99.39 98.37 99.39 98.37 0 65.25 0 65.25 33.13 32.12 33.13 32.12 66.26 65.25 66.26 65.25 99.39"/><polygon class="d" points="65.25 107.8 65.25 182.31 98.37 182.31 98.37 124.3 98.37 107.8 65.25 107.8"/><polygon class="d" points="139.74 132.69 139.74 182.31 172.87 182.31 172.87 116.1 139.74 116.1 139.74 132.69"/><circle class="e" cx="114.92" cy="124.3" r="16.54"/><circle class="e" cx="156.3" cy="91.23" r="16.56"/><path class="e" d="m133.17,227.07h25.28c8.12,0,12.59,4.47,12.59,12.59v2.44h-16.08c-15.78,0-25.98,8.65-25.98,22.04v3.97c0,12.84,9.77,22.16,23.23,22.16,4.1,0,8.31-.55,12.49-1.62l-1.81-10.89c-3.54.69-7.02,1.03-10.32,1.03-6.53,0-10.92-4.29-10.92-10.68v-3.97c0-8.73,7.24-10.56,13.31-10.56h15.96v35.94h12.67v-49.86c0-5.22-1.38-9.64-3.98-12.95h10.31v-11.36h-56.75v11.71Z"/><path class="e" d="m4.18,227.07h25.28c8.12,0,12.59,4.47,12.59,12.59v2.44h-16.08c-15.78,0-25.98,8.65-25.98,22.04v3.97c0,12.84,9.77,22.16,23.23,22.16,4.1,0,8.31-.55,12.49-1.62l-1.81-10.89c-3.54.69-7.02,1.03-10.32,1.03-6.53,0-10.92-4.29-10.92-10.68v-3.97c0-8.73,7.24-10.56,13.31-10.56h15.96v35.94h12.67v-49.86c0-5.22-1.38-9.64-3.98-12.95h10.31v-11.36H4.18v11.71Z"/><path class="e" d="m217.25,215.36h-18.64v11.83h18.64c6.79,0,10.09,3.3,10.09,10.08v30.21c0,6.77-3.39,10.2-10.09,10.2h-11v11.83h11.12c14.17,0,22.63-8.24,22.63-22.04v-30.33c0-13.65-8.51-21.8-22.75-21.8Z"/><path class="e" d="m65.42,232.75v56.77h12.55v-50.01l11.53-11.61h8.6c5.13,0,9.3,4.16,9.3,9.3v52.32h12.55v-52.98c0-11.7-9.49-21.19-21.19-21.19h-14.99l-18.35,17.4Z"/></g></svg>