<svg width="64" height="64" viewBox="0 0 64 64" xmlns="http://www.w3.org/2000/svg">
  <rect width="64" height="64" rx="12" fill="#faf6f0"/>
  <rect x="10" y="8" width="44" height="5" rx="2.5" fill="#5c3d1e"/>
  <line x1="16" y1="13" x2="16" y2="51" stroke="#8b6840" stroke-width="2.5" stroke-linecap="round"/>
  <line x1="24" y1="13" x2="24" y2="51" stroke="#c49a56" stroke-width="2.5" stroke-linecap="round"/>
  <line x1="32" y1="13" x2="32" y2="51" stroke="#8b6840" stroke-width="2.5" stroke-linecap="round"/>
  <line x1="40" y1="13" x2="40" y2="51" stroke="#c49a56" stroke-width="2.5" stroke-linecap="round"/>
  <line x1="48" y1="13" x2="48" y2="51" stroke="#8b6840" stroke-width="2.5" stroke-linecap="round"/>
  <line x1="10" y1="22" x2="32" y2="22" stroke="#5c3d1e" stroke-width="4" stroke-linecap="round"/>
  <line x1="36" y1="22" x2="54" y2="22" stroke="#5c3d1e" stroke-width="4" stroke-linecap="round"/>
  <line x1="10" y1="32" x2="20" y2="32" stroke="#a07840" stroke-width="2.5" stroke-linecap="round"/>
  <line x1="24" y1="32" x2="44" y2="32" stroke="#a07840" stroke-width="2.5" stroke-linecap="round"/>
  <line x1="48" y1="32" x2="54" y2="32" stroke="#a07840" stroke-width="2.5" stroke-linecap="round"/>
  <line x1="10" y1="42" x2="28" y2="42" stroke="#5c3d1e" stroke-width="4" stroke-linecap="round"/>
  <line x1="32" y1="42" x2="54" y2="42" stroke="#5c3d1e" stroke-width="4" stroke-linecap="round"/>
  <rect x="10" y="51" width="44" height="5" rx="2.5" fill="#5c3d1e"/>
</svg>